<?xml version="1.0" encoding="utf-8" standalone="no"?>
<!DOCTYPE svg PUBLIC "-//W3C//DTD SVG 1.1//EN"
  "http://www.w3.org/Graphics/SVG/1.1/DTD/svg11.dtd">
<svg xmlns:xlink="http://www.w3.org/1999/xlink" width="817.92pt" height="365.9335pt" viewBox="0 0 817.92 365.9335" xmlns="http://www.w3.org/2000/svg" version="1.1">
 <metadata>
  <rdf:RDF xmlns:dc="http://purl.org/dc/elements/1.1/" xmlns:cc="http://creativecommons.org/ns#" xmlns:rdf="http://www.w3.org/1999/02/22-rdf-syntax-ns#">
   <cc:Work>
    <dc:type rdf:resource="http://purl.org/dc/dcmitype/StillImage"/>
    <dc:date>2026-04-22T15:50:10.035979</dc:date>
    <dc:format>image/svg+xml</dc:format>
    <dc:creator>
     <cc:Agent>
      <dc:title>Matplotlib v3.10.0, https://matplotlib.org/</dc:title>
     </cc:Agent>
    </dc:creator>
   </cc:Work>
  </rdf:RDF>
 </metadata>
 <defs>
  <style type="text/css">*{stroke-linejoin: round; stroke-linecap: butt}</style>
 </defs>
 <g id="figure_1">
  <g id="patch_1">
   <path d="M 0 365.9335 
L 817.92 365.9335 
L 817.92 0 
L 0 0 
z
" style="fill: #ffffff"/>
  </g>
  <g id="axes_1">
   <g id="table_1">
    <g id="patch_2">
     <path d="M 7.2 138.4135 
L 141.12 138.4135 
L 141.12 102.4135 
L 7.2 102.4135 
z
" style="fill: #e6e6e6; stroke: #000000; stroke-linejoin: miter"/>
    </g>
    <g id="text_1">
     <!-- Sample -->
     <g transform="translate(51.203516 123.448813) scale(0.11 -0.11)">
      <defs>
       <path id="DejaVuSans-Bold-53" d="M 3834 4519 
L 3834 3531 
Q 3450 3703 3084 3790 
Q 2719 3878 2394 3878 
Q 1963 3878 1756 3759 
Q 1550 3641 1550 3391 
Q 1550 3203 1689 3098 
Q 1828 2994 2194 2919 
L 2706 2816 
Q 3484 2659 3812 2340 
Q 4141 2022 4141 1434 
Q 4141 663 3683 286 
Q 3225 -91 2284 -91 
Q 1841 -91 1394 -6 
Q 947 78 500 244 
L 500 1259 
Q 947 1022 1364 901 
Q 1781 781 2169 781 
Q 2563 781 2772 912 
Q 2981 1044 2981 1288 
Q 2981 1506 2839 1625 
Q 2697 1744 2272 1838 
L 1806 1941 
Q 1106 2091 782 2419 
Q 459 2747 459 3303 
Q 459 4000 909 4375 
Q 1359 4750 2203 4750 
Q 2588 4750 2994 4692 
Q 3400 4634 3834 4519 
z
" transform="scale(0.015625)"/>
       <path id="DejaVuSans-Bold-61" d="M 2106 1575 
Q 1756 1575 1579 1456 
Q 1403 1338 1403 1106 
Q 1403 894 1545 773 
Q 1688 653 1941 653 
Q 2256 653 2472 879 
Q 2688 1106 2688 1447 
L 2688 1575 
L 2106 1575 
z
M 3816 1997 
L 3816 0 
L 2688 0 
L 2688 519 
Q 2463 200 2181 54 
Q 1900 -91 1497 -91 
Q 953 -91 614 226 
Q 275 544 275 1050 
Q 275 1666 698 1953 
Q 1122 2241 2028 2241 
L 2688 2241 
L 2688 2328 
Q 2688 2594 2478 2717 
Q 2269 2841 1825 2841 
Q 1466 2841 1156 2769 
Q 847 2697 581 2553 
L 581 3406 
Q 941 3494 1303 3539 
Q 1666 3584 2028 3584 
Q 2975 3584 3395 3211 
Q 3816 2838 3816 1997 
z
" transform="scale(0.015625)"/>
       <path id="DejaVuSans-Bold-6d" d="M 3781 2919 
Q 3994 3244 4286 3414 
Q 4578 3584 4928 3584 
Q 5531 3584 5847 3212 
Q 6163 2841 6163 2131 
L 6163 0 
L 5038 0 
L 5038 1825 
Q 5041 1866 5042 1909 
Q 5044 1953 5044 2034 
Q 5044 2406 4934 2573 
Q 4825 2741 4581 2741 
Q 4263 2741 4089 2478 
Q 3916 2216 3909 1719 
L 3909 0 
L 2784 0 
L 2784 1825 
Q 2784 2406 2684 2573 
Q 2584 2741 2328 2741 
Q 2006 2741 1831 2477 
Q 1656 2213 1656 1722 
L 1656 0 
L 531 0 
L 531 3500 
L 1656 3500 
L 1656 2988 
Q 1863 3284 2130 3434 
Q 2397 3584 2719 3584 
Q 3081 3584 3359 3409 
Q 3638 3234 3781 2919 
z
" transform="scale(0.015625)"/>
       <path id="DejaVuSans-Bold-70" d="M 1656 506 
L 1656 -1331 
L 538 -1331 
L 538 3500 
L 1656 3500 
L 1656 2988 
Q 1888 3294 2169 3439 
Q 2450 3584 2816 3584 
Q 3463 3584 3878 3070 
Q 4294 2556 4294 1747 
Q 4294 938 3878 423 
Q 3463 -91 2816 -91 
Q 2450 -91 2169 54 
Q 1888 200 1656 506 
z
M 2400 2772 
Q 2041 2772 1848 2508 
Q 1656 2244 1656 1747 
Q 1656 1250 1848 986 
Q 2041 722 2400 722 
Q 2759 722 2948 984 
Q 3138 1247 3138 1747 
Q 3138 2247 2948 2509 
Q 2759 2772 2400 2772 
z
" transform="scale(0.015625)"/>
       <path id="DejaVuSans-Bold-6c" d="M 538 4863 
L 1656 4863 
L 1656 0 
L 538 0 
L 538 4863 
z
" transform="scale(0.015625)"/>
       <path id="DejaVuSans-Bold-65" d="M 4031 1759 
L 4031 1441 
L 1416 1441 
Q 1456 1047 1700 850 
Q 1944 653 2381 653 
Q 2734 653 3104 758 
Q 3475 863 3866 1075 
L 3866 213 
Q 3469 63 3072 -14 
Q 2675 -91 2278 -91 
Q 1328 -91 801 392 
Q 275 875 275 1747 
Q 275 2603 792 3093 
Q 1309 3584 2216 3584 
Q 3041 3584 3536 3087 
Q 4031 2591 4031 1759 
z
M 2881 2131 
Q 2881 2450 2695 2645 
Q 2509 2841 2209 2841 
Q 1884 2841 1681 2658 
Q 1478 2475 1428 2131 
L 2881 2131 
z
" transform="scale(0.015625)"/>
      </defs>
      <use xlink:href="#DejaVuSans-Bold-53"/>
      <use xlink:href="#DejaVuSans-Bold-61" transform="translate(72.021484 0)"/>
      <use xlink:href="#DejaVuSans-Bold-6d" transform="translate(139.501953 0)"/>
      <use xlink:href="#DejaVuSans-Bold-70" transform="translate(243.701172 0)"/>
      <use xlink:href="#DejaVuSans-Bold-6c" transform="translate(315.283203 0)"/>
      <use xlink:href="#DejaVuSans-Bold-65" transform="translate(349.560547 0)"/>
     </g>
    </g>
    <g id="patch_3">
     <path d="M 141.12 138.4135 
L 275.04 138.4135 
L 275.04 102.4135 
L 141.12 102.4135 
z
" style="fill: #e6e6e6; stroke: #000000; stroke-linejoin: miter"/>
    </g>
    <g id="text_2">
     <!-- Total Sequences -->
     <g transform="translate(157.683672 123.448813) scale(0.11 -0.11)">
      <defs>
       <path id="DejaVuSans-Bold-54" d="M 31 4666 
L 4331 4666 
L 4331 3756 
L 2784 3756 
L 2784 0 
L 1581 0 
L 1581 3756 
L 31 3756 
L 31 4666 
z
" transform="scale(0.015625)"/>
       <path id="DejaVuSans-Bold-6f" d="M 2203 2784 
Q 1831 2784 1636 2517 
Q 1441 2250 1441 1747 
Q 1441 1244 1636 976 
Q 1831 709 2203 709 
Q 2569 709 2762 976 
Q 2956 1244 2956 1747 
Q 2956 2250 2762 2517 
Q 2569 2784 2203 2784 
z
M 2203 3584 
Q 3106 3584 3614 3096 
Q 4122 2609 4122 1747 
Q 4122 884 3614 396 
Q 3106 -91 2203 -91 
Q 1297 -91 786 396 
Q 275 884 275 1747 
Q 275 2609 786 3096 
Q 1297 3584 2203 3584 
z
" transform="scale(0.015625)"/>
       <path id="DejaVuSans-Bold-74" d="M 1759 4494 
L 1759 3500 
L 2913 3500 
L 2913 2700 
L 1759 2700 
L 1759 1216 
Q 1759 972 1856 886 
Q 1953 800 2241 800 
L 2816 800 
L 2816 0 
L 1856 0 
Q 1194 0 917 276 
Q 641 553 641 1216 
L 641 2700 
L 84 2700 
L 84 3500 
L 641 3500 
L 641 4494 
L 1759 4494 
z
" transform="scale(0.015625)"/>
       <path id="DejaVuSans-Bold-20" transform="scale(0.015625)"/>
       <path id="DejaVuSans-Bold-71" d="M 2181 2772 
Q 1825 2772 1636 2509 
Q 1447 2247 1447 1747 
Q 1447 1247 1636 984 
Q 1825 722 2181 722 
Q 2541 722 2730 984 
Q 2919 1247 2919 1747 
Q 2919 2247 2730 2509 
Q 2541 2772 2181 2772 
z
M 2919 506 
Q 2688 197 2409 53 
Q 2131 -91 1766 -91 
Q 1119 -91 703 423 
Q 288 938 288 1747 
Q 288 2556 703 3067 
Q 1119 3578 1766 3578 
Q 2131 3578 2409 3434 
Q 2688 3291 2919 2981 
L 2919 3500 
L 4044 3500 
L 4044 -1331 
L 2919 -1331 
L 2919 506 
z
" transform="scale(0.015625)"/>
       <path id="DejaVuSans-Bold-75" d="M 500 1363 
L 500 3500 
L 1625 3500 
L 1625 3150 
Q 1625 2866 1622 2436 
Q 1619 2006 1619 1863 
Q 1619 1441 1641 1255 
Q 1663 1069 1716 984 
Q 1784 875 1895 815 
Q 2006 756 2150 756 
Q 2500 756 2700 1025 
Q 2900 1294 2900 1772 
L 2900 3500 
L 4019 3500 
L 4019 0 
L 2900 0 
L 2900 506 
Q 2647 200 2364 54 
Q 2081 -91 1741 -91 
Q 1134 -91 817 281 
Q 500 653 500 1363 
z
" transform="scale(0.015625)"/>
       <path id="DejaVuSans-Bold-6e" d="M 4056 2131 
L 4056 0 
L 2931 0 
L 2931 347 
L 2931 1631 
Q 2931 2084 2911 2256 
Q 2891 2428 2841 2509 
Q 2775 2619 2662 2680 
Q 2550 2741 2406 2741 
Q 2056 2741 1856 2470 
Q 1656 2200 1656 1722 
L 1656 0 
L 538 0 
L 538 3500 
L 1656 3500 
L 1656 2988 
Q 1909 3294 2193 3439 
Q 2478 3584 2822 3584 
Q 3428 3584 3742 3212 
Q 4056 2841 4056 2131 
z
" transform="scale(0.015625)"/>
       <path id="DejaVuSans-Bold-63" d="M 3366 3391 
L 3366 2478 
Q 3138 2634 2908 2709 
Q 2678 2784 2431 2784 
Q 1963 2784 1702 2511 
Q 1441 2238 1441 1747 
Q 1441 1256 1702 982 
Q 1963 709 2431 709 
Q 2694 709 2930 787 
Q 3166 866 3366 1019 
L 3366 103 
Q 3103 6 2833 -42 
Q 2563 -91 2291 -91 
Q 1344 -91 809 395 
Q 275 881 275 1747 
Q 275 2613 809 3098 
Q 1344 3584 2291 3584 
Q 2566 3584 2833 3536 
Q 3100 3488 3366 3391 
z
" transform="scale(0.015625)"/>
       <path id="DejaVuSans-Bold-73" d="M 3272 3391 
L 3272 2541 
Q 2913 2691 2578 2766 
Q 2244 2841 1947 2841 
Q 1628 2841 1473 2761 
Q 1319 2681 1319 2516 
Q 1319 2381 1436 2309 
Q 1553 2238 1856 2203 
L 2053 2175 
Q 2913 2066 3209 1816 
Q 3506 1566 3506 1031 
Q 3506 472 3093 190 
Q 2681 -91 1863 -91 
Q 1516 -91 1145 -36 
Q 775 19 384 128 
L 384 978 
Q 719 816 1070 734 
Q 1422 653 1784 653 
Q 2113 653 2278 743 
Q 2444 834 2444 1013 
Q 2444 1163 2330 1236 
Q 2216 1309 1875 1350 
L 1678 1375 
Q 931 1469 631 1722 
Q 331 1975 331 2491 
Q 331 3047 712 3315 
Q 1094 3584 1881 3584 
Q 2191 3584 2531 3537 
Q 2872 3491 3272 3391 
z
" transform="scale(0.015625)"/>
      </defs>
      <use xlink:href="#DejaVuSans-Bold-54"/>
      <use xlink:href="#DejaVuSans-Bold-6f" transform="translate(54.962891 0)"/>
      <use xlink:href="#DejaVuSans-Bold-74" transform="translate(123.664062 0)"/>
      <use xlink:href="#DejaVuSans-Bold-61" transform="translate(171.466797 0)"/>
      <use xlink:href="#DejaVuSans-Bold-6c" transform="translate(238.947266 0)"/>
      <use xlink:href="#DejaVuSans-Bold-20" transform="translate(273.224609 0)"/>
      <use xlink:href="#DejaVuSans-Bold-53" transform="translate(308.039062 0)"/>
      <use xlink:href="#DejaVuSans-Bold-65" transform="translate(380.060547 0)"/>
      <use xlink:href="#DejaVuSans-Bold-71" transform="translate(447.882812 0)"/>
      <use xlink:href="#DejaVuSans-Bold-75" transform="translate(519.464844 0)"/>
      <use xlink:href="#DejaVuSans-Bold-65" transform="translate(590.65625 0)"/>
      <use xlink:href="#DejaVuSans-Bold-6e" transform="translate(658.478516 0)"/>
      <use xlink:href="#DejaVuSans-Bold-63" transform="translate(729.669922 0)"/>
      <use xlink:href="#DejaVuSans-Bold-65" transform="translate(788.947266 0)"/>
      <use xlink:href="#DejaVuSans-Bold-73" transform="translate(856.769531 0)"/>
     </g>
    </g>
    <g id="patch_4">
     <path d="M 275.04 138.4135 
L 408.96 138.4135 
L 408.96 102.4135 
L 275.04 102.4135 
z
" style="fill: #e6e6e6; stroke: #000000; stroke-linejoin: miter"/>
    </g>
    <g id="text_3">
     <!-- Mapped &amp; Paired -->
     <g transform="translate(288.784922 123.448813) scale(0.11 -0.11)">
      <defs>
       <path id="DejaVuSans-Bold-4d" d="M 588 4666 
L 2119 4666 
L 3181 2169 
L 4250 4666 
L 5778 4666 
L 5778 0 
L 4641 0 
L 4641 3413 
L 3566 897 
L 2803 897 
L 1728 3413 
L 1728 0 
L 588 0 
L 588 4666 
z
" transform="scale(0.015625)"/>
       <path id="DejaVuSans-Bold-64" d="M 2919 2988 
L 2919 4863 
L 4044 4863 
L 4044 0 
L 2919 0 
L 2919 506 
Q 2688 197 2409 53 
Q 2131 -91 1766 -91 
Q 1119 -91 703 423 
Q 288 938 288 1747 
Q 288 2556 703 3070 
Q 1119 3584 1766 3584 
Q 2128 3584 2408 3439 
Q 2688 3294 2919 2988 
z
M 2181 722 
Q 2541 722 2730 984 
Q 2919 1247 2919 1747 
Q 2919 2247 2730 2509 
Q 2541 2772 2181 2772 
Q 1825 2772 1636 2509 
Q 1447 2247 1447 1747 
Q 1447 1247 1636 984 
Q 1825 722 2181 722 
z
" transform="scale(0.015625)"/>
       <path id="DejaVuSans-Bold-26" d="M 2497 3097 
L 3775 1691 
Q 3941 1909 4027 2181 
Q 4113 2453 4128 2797 
L 5100 2797 
Q 5053 2228 4879 1784 
Q 4706 1341 4397 1006 
L 5313 0 
L 3988 0 
L 3681 341 
Q 3353 122 2990 15 
Q 2628 -91 2222 -91 
Q 1400 -91 892 342 
Q 384 775 384 1459 
Q 384 1916 607 2267 
Q 831 2619 1338 2950 
Q 1206 3116 1143 3281 
Q 1081 3447 1081 3628 
Q 1081 4138 1478 4444 
Q 1875 4750 2534 4750 
Q 2819 4750 3126 4704 
Q 3434 4659 3769 4569 
L 3769 3700 
Q 3475 3850 3212 3922 
Q 2950 3994 2700 3994 
Q 2459 3994 2326 3901 
Q 2194 3809 2194 3641 
Q 2194 3534 2270 3398 
Q 2347 3263 2497 3097 
z
M 1875 2322 
Q 1672 2175 1569 1989 
Q 1466 1803 1466 1581 
Q 1466 1222 1731 969 
Q 1997 716 2369 716 
Q 2578 716 2759 780 
Q 2941 844 3097 972 
L 1875 2322 
z
" transform="scale(0.015625)"/>
       <path id="DejaVuSans-Bold-50" d="M 588 4666 
L 2584 4666 
Q 3475 4666 3951 4270 
Q 4428 3875 4428 3144 
Q 4428 2409 3951 2014 
Q 3475 1619 2584 1619 
L 1791 1619 
L 1791 0 
L 588 0 
L 588 4666 
z
M 1791 3794 
L 1791 2491 
L 2456 2491 
Q 2806 2491 2997 2661 
Q 3188 2831 3188 3144 
Q 3188 3456 2997 3625 
Q 2806 3794 2456 3794 
L 1791 3794 
z
" transform="scale(0.015625)"/>
       <path id="DejaVuSans-Bold-69" d="M 538 3500 
L 1656 3500 
L 1656 0 
L 538 0 
L 538 3500 
z
M 538 4863 
L 1656 4863 
L 1656 3950 
L 538 3950 
L 538 4863 
z
" transform="scale(0.015625)"/>
       <path id="DejaVuSans-Bold-72" d="M 3138 2547 
Q 2991 2616 2845 2648 
Q 2700 2681 2553 2681 
Q 2122 2681 1889 2404 
Q 1656 2128 1656 1613 
L 1656 0 
L 538 0 
L 538 3500 
L 1656 3500 
L 1656 2925 
Q 1872 3269 2151 3426 
Q 2431 3584 2822 3584 
Q 2878 3584 2943 3579 
Q 3009 3575 3134 3559 
L 3138 2547 
z
" transform="scale(0.015625)"/>
      </defs>
      <use xlink:href="#DejaVuSans-Bold-4d"/>
      <use xlink:href="#DejaVuSans-Bold-61" transform="translate(99.511719 0)"/>
      <use xlink:href="#DejaVuSans-Bold-70" transform="translate(166.992188 0)"/>
      <use xlink:href="#DejaVuSans-Bold-70" transform="translate(238.574219 0)"/>
      <use xlink:href="#DejaVuSans-Bold-65" transform="translate(310.15625 0)"/>
      <use xlink:href="#DejaVuSans-Bold-64" transform="translate(377.978516 0)"/>
      <use xlink:href="#DejaVuSans-Bold-20" transform="translate(449.560547 0)"/>
      <use xlink:href="#DejaVuSans-Bold-26" transform="translate(484.375 0)"/>
      <use xlink:href="#DejaVuSans-Bold-20" transform="translate(571.582031 0)"/>
      <use xlink:href="#DejaVuSans-Bold-50" transform="translate(606.396484 0)"/>
      <use xlink:href="#DejaVuSans-Bold-61" transform="translate(677.0625 0)"/>
      <use xlink:href="#DejaVuSans-Bold-69" transform="translate(744.542969 0)"/>
      <use xlink:href="#DejaVuSans-Bold-72" transform="translate(778.820312 0)"/>
      <use xlink:href="#DejaVuSans-Bold-65" transform="translate(828.136719 0)"/>
      <use xlink:href="#DejaVuSans-Bold-64" transform="translate(895.958984 0)"/>
     </g>
    </g>
    <g id="patch_5">
     <path d="M 408.96 138.4135 
L 542.88 138.4135 
L 542.88 102.4135 
L 408.96 102.4135 
z
" style="fill: #e6e6e6; stroke: #000000; stroke-linejoin: miter"/>
    </g>
    <g id="text_4">
     <!-- MQ0 Reads -->
     <g transform="translate(441.141953 123.448813) scale(0.11 -0.11)">
      <defs>
       <path id="DejaVuSans-Bold-51" d="M 2847 -84 
L 2753 -84 
Q 1600 -84 959 553 
Q 319 1191 319 2328 
Q 319 3463 958 4106 
Q 1597 4750 2719 4750 
Q 3853 4750 4486 4112 
Q 5119 3475 5119 2328 
Q 5119 1541 4783 972 
Q 4447 403 3816 116 
L 4756 -934 
L 3609 -934 
L 2847 -84 
z
M 2719 3878 
Q 2169 3878 1866 3472 
Q 1563 3066 1563 2328 
Q 1563 1578 1859 1179 
Q 2156 781 2719 781 
Q 3272 781 3575 1187 
Q 3878 1594 3878 2328 
Q 3878 3066 3575 3472 
Q 3272 3878 2719 3878 
z
" transform="scale(0.015625)"/>
       <path id="DejaVuSans-Bold-30" d="M 2944 2338 
Q 2944 3213 2780 3570 
Q 2616 3928 2228 3928 
Q 1841 3928 1675 3570 
Q 1509 3213 1509 2338 
Q 1509 1453 1675 1090 
Q 1841 728 2228 728 
Q 2613 728 2778 1090 
Q 2944 1453 2944 2338 
z
M 4147 2328 
Q 4147 1169 3647 539 
Q 3147 -91 2228 -91 
Q 1306 -91 806 539 
Q 306 1169 306 2328 
Q 306 3491 806 4120 
Q 1306 4750 2228 4750 
Q 3147 4750 3647 4120 
Q 4147 3491 4147 2328 
z
" transform="scale(0.015625)"/>
       <path id="DejaVuSans-Bold-52" d="M 2297 2597 
Q 2675 2597 2839 2737 
Q 3003 2878 3003 3200 
Q 3003 3519 2839 3656 
Q 2675 3794 2297 3794 
L 1791 3794 
L 1791 2597 
L 2297 2597 
z
M 1791 1766 
L 1791 0 
L 588 0 
L 588 4666 
L 2425 4666 
Q 3347 4666 3776 4356 
Q 4206 4047 4206 3378 
Q 4206 2916 3982 2619 
Q 3759 2322 3309 2181 
Q 3556 2125 3751 1926 
Q 3947 1728 4147 1325 
L 4800 0 
L 3519 0 
L 2950 1159 
Q 2778 1509 2601 1637 
Q 2425 1766 2131 1766 
L 1791 1766 
z
" transform="scale(0.015625)"/>
      </defs>
      <use xlink:href="#DejaVuSans-Bold-4d"/>
      <use xlink:href="#DejaVuSans-Bold-51" transform="translate(99.511719 0)"/>
      <use xlink:href="#DejaVuSans-Bold-30" transform="translate(184.521484 0)"/>
      <use xlink:href="#DejaVuSans-Bold-20" transform="translate(254.101562 0)"/>
      <use xlink:href="#DejaVuSans-Bold-52" transform="translate(288.916016 0)"/>
      <use xlink:href="#DejaVuSans-Bold-65" transform="translate(365.917969 0)"/>
      <use xlink:href="#DejaVuSans-Bold-61" transform="translate(433.740234 0)"/>
      <use xlink:href="#DejaVuSans-Bold-64" transform="translate(501.220703 0)"/>
      <use xlink:href="#DejaVuSans-Bold-73" transform="translate(572.802734 0)"/>
     </g>
    </g>
    <g id="patch_6">
     <path d="M 542.88 138.4135 
L 676.8 138.4135 
L 676.8 102.4135 
L 542.88 102.4135 
z
" style="fill: #e6e6e6; stroke: #000000; stroke-linejoin: miter"/>
    </g>
    <g id="text_5">
     <!-- Mapping Rate (%) -->
     <g transform="translate(554.369922 123.405844) scale(0.11 -0.11)">
      <defs>
       <path id="DejaVuSans-Bold-67" d="M 2919 594 
Q 2688 288 2409 144 
Q 2131 0 1766 0 
Q 1125 0 706 504 
Q 288 1009 288 1791 
Q 288 2575 706 3076 
Q 1125 3578 1766 3578 
Q 2131 3578 2409 3434 
Q 2688 3291 2919 2981 
L 2919 3500 
L 4044 3500 
L 4044 353 
Q 4044 -491 3511 -936 
Q 2978 -1381 1966 -1381 
Q 1638 -1381 1331 -1331 
Q 1025 -1281 716 -1178 
L 716 -306 
Q 1009 -475 1290 -558 
Q 1572 -641 1856 -641 
Q 2406 -641 2662 -400 
Q 2919 -159 2919 353 
L 2919 594 
z
M 2181 2772 
Q 1834 2772 1640 2515 
Q 1447 2259 1447 1791 
Q 1447 1309 1634 1061 
Q 1822 813 2181 813 
Q 2531 813 2725 1069 
Q 2919 1325 2919 1791 
Q 2919 2259 2725 2515 
Q 2531 2772 2181 2772 
z
" transform="scale(0.015625)"/>
       <path id="DejaVuSans-Bold-28" d="M 2413 -844 
L 1484 -844 
Q 1006 -72 778 623 
Q 550 1319 550 2003 
Q 550 2688 779 3389 
Q 1009 4091 1484 4856 
L 2413 4856 
Q 2013 4116 1813 3408 
Q 1613 2700 1613 2009 
Q 1613 1319 1811 609 
Q 2009 -100 2413 -844 
z
" transform="scale(0.015625)"/>
       <path id="DejaVuSans-Bold-25" d="M 4959 1925 
Q 4738 1925 4616 1733 
Q 4494 1541 4494 1184 
Q 4494 825 4614 633 
Q 4734 441 4959 441 
Q 5184 441 5303 633 
Q 5422 825 5422 1184 
Q 5422 1541 5301 1733 
Q 5181 1925 4959 1925 
z
M 4959 2450 
Q 5541 2450 5875 2112 
Q 6209 1775 6209 1184 
Q 6209 594 5875 251 
Q 5541 -91 4959 -91 
Q 4378 -91 4042 251 
Q 3706 594 3706 1184 
Q 3706 1772 4042 2111 
Q 4378 2450 4959 2450 
z
M 2094 -91 
L 1403 -91 
L 4319 4750 
L 5013 4750 
L 2094 -91 
z
M 1453 4750 
Q 2034 4750 2367 4411 
Q 2700 4072 2700 3481 
Q 2700 2891 2367 2550 
Q 2034 2209 1453 2209 
Q 872 2209 539 2550 
Q 206 2891 206 3481 
Q 206 4072 539 4411 
Q 872 4750 1453 4750 
z
M 1453 4225 
Q 1228 4225 1106 4031 
Q 984 3838 984 3481 
Q 984 3122 1106 2926 
Q 1228 2731 1453 2731 
Q 1678 2731 1798 2926 
Q 1919 3122 1919 3481 
Q 1919 3838 1797 4031 
Q 1675 4225 1453 4225 
z
" transform="scale(0.015625)"/>
       <path id="DejaVuSans-Bold-29" d="M 513 -844 
Q 913 -100 1113 609 
Q 1313 1319 1313 2009 
Q 1313 2700 1113 3408 
Q 913 4116 513 4856 
L 1441 4856 
Q 1916 4091 2145 3389 
Q 2375 2688 2375 2003 
Q 2375 1319 2147 623 
Q 1919 -72 1441 -844 
L 513 -844 
z
" transform="scale(0.015625)"/>
      </defs>
      <use xlink:href="#DejaVuSans-Bold-4d"/>
      <use xlink:href="#DejaVuSans-Bold-61" transform="translate(99.511719 0)"/>
      <use xlink:href="#DejaVuSans-Bold-70" transform="translate(166.992188 0)"/>
      <use xlink:href="#DejaVuSans-Bold-70" transform="translate(238.574219 0)"/>
      <use xlink:href="#DejaVuSans-Bold-69" transform="translate(310.15625 0)"/>
      <use xlink:href="#DejaVuSans-Bold-6e" transform="translate(344.433594 0)"/>
      <use xlink:href="#DejaVuSans-Bold-67" transform="translate(415.625 0)"/>
      <use xlink:href="#DejaVuSans-Bold-20" transform="translate(487.207031 0)"/>
      <use xlink:href="#DejaVuSans-Bold-52" transform="translate(522.021484 0)"/>
      <use xlink:href="#DejaVuSans-Bold-61" transform="translate(599.023438 0)"/>
      <use xlink:href="#DejaVuSans-Bold-74" transform="translate(666.503906 0)"/>
      <use xlink:href="#DejaVuSans-Bold-65" transform="translate(714.306641 0)"/>
      <use xlink:href="#DejaVuSans-Bold-20" transform="translate(782.128906 0)"/>
      <use xlink:href="#DejaVuSans-Bold-28" transform="translate(816.943359 0)"/>
      <use xlink:href="#DejaVuSans-Bold-25" transform="translate(862.646484 0)"/>
      <use xlink:href="#DejaVuSans-Bold-29" transform="translate(962.841797 0)"/>
     </g>
    </g>
    <g id="patch_7">
     <path d="M 676.8 138.4135 
L 810.72 138.4135 
L 810.72 102.4135 
L 676.8 102.4135 
z
" style="fill: #e6e6e6; stroke: #000000; stroke-linejoin: miter"/>
    </g>
    <g id="text_6">
     <!-- MQ0 Rate (%) -->
     <g transform="translate(701.110078 123.448813) scale(0.11 -0.11)">
      <use xlink:href="#DejaVuSans-Bold-4d"/>
      <use xlink:href="#DejaVuSans-Bold-51" transform="translate(99.511719 0)"/>
      <use xlink:href="#DejaVuSans-Bold-30" transform="translate(184.521484 0)"/>
      <use xlink:href="#DejaVuSans-Bold-20" transform="translate(254.101562 0)"/>
      <use xlink:href="#DejaVuSans-Bold-52" transform="translate(288.916016 0)"/>
      <use xlink:href="#DejaVuSans-Bold-61" transform="translate(365.917969 0)"/>
      <use xlink:href="#DejaVuSans-Bold-74" transform="translate(433.398438 0)"/>
      <use xlink:href="#DejaVuSans-Bold-65" transform="translate(481.201172 0)"/>
      <use xlink:href="#DejaVuSans-Bold-20" transform="translate(549.023438 0)"/>
      <use xlink:href="#DejaVuSans-Bold-28" transform="translate(583.837891 0)"/>
      <use xlink:href="#DejaVuSans-Bold-25" transform="translate(629.541016 0)"/>
      <use xlink:href="#DejaVuSans-Bold-29" transform="translate(729.736328 0)"/>
     </g>
    </g>
    <g id="patch_8">
     <path d="M 7.2 174.4135 
L 141.12 174.4135 
L 141.12 138.4135 
L 7.2 138.4135 
z
" style="fill: #ffffff; stroke: #000000; stroke-linejoin: miter"/>
    </g>
    <g id="text_7">
     <!-- TIL11_TB_S3 -->
     <g transform="translate(39.491094 159.198734) scale(0.11 -0.11)">
      <defs>
       <path id="DejaVuSans-54" d="M -19 4666 
L 3928 4666 
L 3928 4134 
L 2272 4134 
L 2272 0 
L 1638 0 
L 1638 4134 
L -19 4134 
L -19 4666 
z
" transform="scale(0.015625)"/>
       <path id="DejaVuSans-49" d="M 628 4666 
L 1259 4666 
L 1259 0 
L 628 0 
L 628 4666 
z
" transform="scale(0.015625)"/>
       <path id="DejaVuSans-4c" d="M 628 4666 
L 1259 4666 
L 1259 531 
L 3531 531 
L 3531 0 
L 628 0 
L 628 4666 
z
" transform="scale(0.015625)"/>
       <path id="DejaVuSans-31" d="M 794 531 
L 1825 531 
L 1825 4091 
L 703 3866 
L 703 4441 
L 1819 4666 
L 2450 4666 
L 2450 531 
L 3481 531 
L 3481 0 
L 794 0 
L 794 531 
z
" transform="scale(0.015625)"/>
       <path id="DejaVuSans-5f" d="M 3263 -1063 
L 3263 -1509 
L -63 -1509 
L -63 -1063 
L 3263 -1063 
z
" transform="scale(0.015625)"/>
       <path id="DejaVuSans-42" d="M 1259 2228 
L 1259 519 
L 2272 519 
Q 2781 519 3026 730 
Q 3272 941 3272 1375 
Q 3272 1813 3026 2020 
Q 2781 2228 2272 2228 
L 1259 2228 
z
M 1259 4147 
L 1259 2741 
L 2194 2741 
Q 2656 2741 2882 2914 
Q 3109 3088 3109 3444 
Q 3109 3797 2882 3972 
Q 2656 4147 2194 4147 
L 1259 4147 
z
M 628 4666 
L 2241 4666 
Q 2963 4666 3353 4366 
Q 3744 4066 3744 3513 
Q 3744 3084 3544 2831 
Q 3344 2578 2956 2516 
Q 3422 2416 3680 2098 
Q 3938 1781 3938 1306 
Q 3938 681 3513 340 
Q 3088 0 2303 0 
L 628 0 
L 628 4666 
z
" transform="scale(0.015625)"/>
       <path id="DejaVuSans-53" d="M 3425 4513 
L 3425 3897 
Q 3066 4069 2747 4153 
Q 2428 4238 2131 4238 
Q 1616 4238 1336 4038 
Q 1056 3838 1056 3469 
Q 1056 3159 1242 3001 
Q 1428 2844 1947 2747 
L 2328 2669 
Q 3034 2534 3370 2195 
Q 3706 1856 3706 1288 
Q 3706 609 3251 259 
Q 2797 -91 1919 -91 
Q 1588 -91 1214 -16 
Q 841 59 441 206 
L 441 856 
Q 825 641 1194 531 
Q 1563 422 1919 422 
Q 2459 422 2753 634 
Q 3047 847 3047 1241 
Q 3047 1584 2836 1778 
Q 2625 1972 2144 2069 
L 1759 2144 
Q 1053 2284 737 2584 
Q 422 2884 422 3419 
Q 422 4038 858 4394 
Q 1294 4750 2059 4750 
Q 2388 4750 2728 4690 
Q 3069 4631 3425 4513 
z
" transform="scale(0.015625)"/>
       <path id="DejaVuSans-33" d="M 2597 2516 
Q 3050 2419 3304 2112 
Q 3559 1806 3559 1356 
Q 3559 666 3084 287 
Q 2609 -91 1734 -91 
Q 1441 -91 1130 -33 
Q 819 25 488 141 
L 488 750 
Q 750 597 1062 519 
Q 1375 441 1716 441 
Q 2309 441 2620 675 
Q 2931 909 2931 1356 
Q 2931 1769 2642 2001 
Q 2353 2234 1838 2234 
L 1294 2234 
L 1294 2753 
L 1863 2753 
Q 2328 2753 2575 2939 
Q 2822 3125 2822 3475 
Q 2822 3834 2567 4026 
Q 2313 4219 1838 4219 
Q 1578 4219 1281 4162 
Q 984 4106 628 3988 
L 628 4550 
Q 988 4650 1302 4700 
Q 1616 4750 1894 4750 
Q 2613 4750 3031 4423 
Q 3450 4097 3450 3541 
Q 3450 3153 3228 2886 
Q 3006 2619 2597 2516 
z
" transform="scale(0.015625)"/>
      </defs>
      <use xlink:href="#DejaVuSans-54"/>
      <use xlink:href="#DejaVuSans-49" transform="translate(61.083984 0)"/>
      <use xlink:href="#DejaVuSans-4c" transform="translate(90.576172 0)"/>
      <use xlink:href="#DejaVuSans-31" transform="translate(146.289062 0)"/>
      <use xlink:href="#DejaVuSans-31" transform="translate(209.912109 0)"/>
      <use xlink:href="#DejaVuSans-5f" transform="translate(273.535156 0)"/>
      <use xlink:href="#DejaVuSans-54" transform="translate(323.535156 0)"/>
      <use xlink:href="#DejaVuSans-42" transform="translate(384.619141 0)"/>
      <use xlink:href="#DejaVuSans-5f" transform="translate(453.222656 0)"/>
      <use xlink:href="#DejaVuSans-53" transform="translate(503.222656 0)"/>
      <use xlink:href="#DejaVuSans-33" transform="translate(566.699219 0)"/>
     </g>
    </g>
    <g id="patch_9">
     <path d="M 141.12 174.4135 
L 275.04 174.4135 
L 275.04 138.4135 
L 141.12 138.4135 
z
" style="fill: #ffffff; stroke: #000000; stroke-linejoin: miter"/>
    </g>
    <g id="text_8">
     <!-- 299,180,352 -->
     <g transform="translate(173.089687 159.448813) scale(0.11 -0.11)">
      <defs>
       <path id="DejaVuSans-32" d="M 1228 531 
L 3431 531 
L 3431 0 
L 469 0 
L 469 531 
Q 828 903 1448 1529 
Q 2069 2156 2228 2338 
Q 2531 2678 2651 2914 
Q 2772 3150 2772 3378 
Q 2772 3750 2511 3984 
Q 2250 4219 1831 4219 
Q 1534 4219 1204 4116 
Q 875 4013 500 3803 
L 500 4441 
Q 881 4594 1212 4672 
Q 1544 4750 1819 4750 
Q 2544 4750 2975 4387 
Q 3406 4025 3406 3419 
Q 3406 3131 3298 2873 
Q 3191 2616 2906 2266 
Q 2828 2175 2409 1742 
Q 1991 1309 1228 531 
z
" transform="scale(0.015625)"/>
       <path id="DejaVuSans-39" d="M 703 97 
L 703 672 
Q 941 559 1184 500 
Q 1428 441 1663 441 
Q 2288 441 2617 861 
Q 2947 1281 2994 2138 
Q 2813 1869 2534 1725 
Q 2256 1581 1919 1581 
Q 1219 1581 811 2004 
Q 403 2428 403 3163 
Q 403 3881 828 4315 
Q 1253 4750 1959 4750 
Q 2769 4750 3195 4129 
Q 3622 3509 3622 2328 
Q 3622 1225 3098 567 
Q 2575 -91 1691 -91 
Q 1453 -91 1209 -44 
Q 966 3 703 97 
z
M 1959 2075 
Q 2384 2075 2632 2365 
Q 2881 2656 2881 3163 
Q 2881 3666 2632 3958 
Q 2384 4250 1959 4250 
Q 1534 4250 1286 3958 
Q 1038 3666 1038 3163 
Q 1038 2656 1286 2365 
Q 1534 2075 1959 2075 
z
" transform="scale(0.015625)"/>
       <path id="DejaVuSans-2c" d="M 750 794 
L 1409 794 
L 1409 256 
L 897 -744 
L 494 -744 
L 750 256 
L 750 794 
z
" transform="scale(0.015625)"/>
       <path id="DejaVuSans-38" d="M 2034 2216 
Q 1584 2216 1326 1975 
Q 1069 1734 1069 1313 
Q 1069 891 1326 650 
Q 1584 409 2034 409 
Q 2484 409 2743 651 
Q 3003 894 3003 1313 
Q 3003 1734 2745 1975 
Q 2488 2216 2034 2216 
z
M 1403 2484 
Q 997 2584 770 2862 
Q 544 3141 544 3541 
Q 544 4100 942 4425 
Q 1341 4750 2034 4750 
Q 2731 4750 3128 4425 
Q 3525 4100 3525 3541 
Q 3525 3141 3298 2862 
Q 3072 2584 2669 2484 
Q 3125 2378 3379 2068 
Q 3634 1759 3634 1313 
Q 3634 634 3220 271 
Q 2806 -91 2034 -91 
Q 1263 -91 848 271 
Q 434 634 434 1313 
Q 434 1759 690 2068 
Q 947 2378 1403 2484 
z
M 1172 3481 
Q 1172 3119 1398 2916 
Q 1625 2713 2034 2713 
Q 2441 2713 2670 2916 
Q 2900 3119 2900 3481 
Q 2900 3844 2670 4047 
Q 2441 4250 2034 4250 
Q 1625 4250 1398 4047 
Q 1172 3844 1172 3481 
z
" transform="scale(0.015625)"/>
       <path id="DejaVuSans-30" d="M 2034 4250 
Q 1547 4250 1301 3770 
Q 1056 3291 1056 2328 
Q 1056 1369 1301 889 
Q 1547 409 2034 409 
Q 2525 409 2770 889 
Q 3016 1369 3016 2328 
Q 3016 3291 2770 3770 
Q 2525 4250 2034 4250 
z
M 2034 4750 
Q 2819 4750 3233 4129 
Q 3647 3509 3647 2328 
Q 3647 1150 3233 529 
Q 2819 -91 2034 -91 
Q 1250 -91 836 529 
Q 422 1150 422 2328 
Q 422 3509 836 4129 
Q 1250 4750 2034 4750 
z
" transform="scale(0.015625)"/>
       <path id="DejaVuSans-35" d="M 691 4666 
L 3169 4666 
L 3169 4134 
L 1269 4134 
L 1269 2991 
Q 1406 3038 1543 3061 
Q 1681 3084 1819 3084 
Q 2600 3084 3056 2656 
Q 3513 2228 3513 1497 
Q 3513 744 3044 326 
Q 2575 -91 1722 -91 
Q 1428 -91 1123 -41 
Q 819 9 494 109 
L 494 744 
Q 775 591 1075 516 
Q 1375 441 1709 441 
Q 2250 441 2565 725 
Q 2881 1009 2881 1497 
Q 2881 1984 2565 2268 
Q 2250 2553 1709 2553 
Q 1456 2553 1204 2497 
Q 953 2441 691 2322 
L 691 4666 
z
" transform="scale(0.015625)"/>
      </defs>
      <use xlink:href="#DejaVuSans-32"/>
      <use xlink:href="#DejaVuSans-39" transform="translate(63.623047 0)"/>
      <use xlink:href="#DejaVuSans-39" transform="translate(127.246094 0)"/>
      <use xlink:href="#DejaVuSans-2c" transform="translate(190.869141 0)"/>
      <use xlink:href="#DejaVuSans-31" transform="translate(222.65625 0)"/>
      <use xlink:href="#DejaVuSans-38" transform="translate(286.279297 0)"/>
      <use xlink:href="#DejaVuSans-30" transform="translate(349.902344 0)"/>
      <use xlink:href="#DejaVuSans-2c" transform="translate(413.525391 0)"/>
      <use xlink:href="#DejaVuSans-33" transform="translate(445.3125 0)"/>
      <use xlink:href="#DejaVuSans-35" transform="translate(508.935547 0)"/>
      <use xlink:href="#DejaVuSans-32" transform="translate(572.558594 0)"/>
     </g>
    </g>
    <g id="patch_10">
     <path d="M 275.04 174.4135 
L 408.96 174.4135 
L 408.96 138.4135 
L 275.04 138.4135 
z
" style="fill: #ffffff; stroke: #000000; stroke-linejoin: miter"/>
    </g>
    <g id="text_9">
     <!-- 296,098,780 -->
     <g transform="translate(307.009687 159.448813) scale(0.11 -0.11)">
      <defs>
       <path id="DejaVuSans-36" d="M 2113 2584 
Q 1688 2584 1439 2293 
Q 1191 2003 1191 1497 
Q 1191 994 1439 701 
Q 1688 409 2113 409 
Q 2538 409 2786 701 
Q 3034 994 3034 1497 
Q 3034 2003 2786 2293 
Q 2538 2584 2113 2584 
z
M 3366 4563 
L 3366 3988 
Q 3128 4100 2886 4159 
Q 2644 4219 2406 4219 
Q 1781 4219 1451 3797 
Q 1122 3375 1075 2522 
Q 1259 2794 1537 2939 
Q 1816 3084 2150 3084 
Q 2853 3084 3261 2657 
Q 3669 2231 3669 1497 
Q 3669 778 3244 343 
Q 2819 -91 2113 -91 
Q 1303 -91 875 529 
Q 447 1150 447 2328 
Q 447 3434 972 4092 
Q 1497 4750 2381 4750 
Q 2619 4750 2861 4703 
Q 3103 4656 3366 4563 
z
" transform="scale(0.015625)"/>
       <path id="DejaVuSans-37" d="M 525 4666 
L 3525 4666 
L 3525 4397 
L 1831 0 
L 1172 0 
L 2766 4134 
L 525 4134 
L 525 4666 
z
" transform="scale(0.015625)"/>
      </defs>
      <use xlink:href="#DejaVuSans-32"/>
      <use xlink:href="#DejaVuSans-39" transform="translate(63.623047 0)"/>
      <use xlink:href="#DejaVuSans-36" transform="translate(127.246094 0)"/>
      <use xlink:href="#DejaVuSans-2c" transform="translate(190.869141 0)"/>
      <use xlink:href="#DejaVuSans-30" transform="translate(222.65625 0)"/>
      <use xlink:href="#DejaVuSans-39" transform="translate(286.279297 0)"/>
      <use xlink:href="#DejaVuSans-38" transform="translate(349.902344 0)"/>
      <use xlink:href="#DejaVuSans-2c" transform="translate(413.525391 0)"/>
      <use xlink:href="#DejaVuSans-37" transform="translate(445.3125 0)"/>
      <use xlink:href="#DejaVuSans-38" transform="translate(508.935547 0)"/>
      <use xlink:href="#DejaVuSans-30" transform="translate(572.558594 0)"/>
     </g>
    </g>
    <g id="patch_11">
     <path d="M 408.96 174.4135 
L 542.88 174.4135 
L 542.88 138.4135 
L 408.96 138.4135 
z
" style="fill: #ffffff; stroke: #000000; stroke-linejoin: miter"/>
    </g>
    <g id="text_10">
     <!-- 89,480,894 -->
     <g transform="translate(444.429062 159.448813) scale(0.11 -0.11)">
      <defs>
       <path id="DejaVuSans-34" d="M 2419 4116 
L 825 1625 
L 2419 1625 
L 2419 4116 
z
M 2253 4666 
L 3047 4666 
L 3047 1625 
L 3713 1625 
L 3713 1100 
L 3047 1100 
L 3047 0 
L 2419 0 
L 2419 1100 
L 313 1100 
L 313 1709 
L 2253 4666 
z
" transform="scale(0.015625)"/>
      </defs>
      <use xlink:href="#DejaVuSans-38"/>
      <use xlink:href="#DejaVuSans-39" transform="translate(63.623047 0)"/>
      <use xlink:href="#DejaVuSans-2c" transform="translate(127.246094 0)"/>
      <use xlink:href="#DejaVuSans-34" transform="translate(159.033203 0)"/>
      <use xlink:href="#DejaVuSans-38" transform="translate(222.65625 0)"/>
      <use xlink:href="#DejaVuSans-30" transform="translate(286.279297 0)"/>
      <use xlink:href="#DejaVuSans-2c" transform="translate(349.902344 0)"/>
      <use xlink:href="#DejaVuSans-38" transform="translate(381.689453 0)"/>
      <use xlink:href="#DejaVuSans-39" transform="translate(445.3125 0)"/>
      <use xlink:href="#DejaVuSans-34" transform="translate(508.935547 0)"/>
     </g>
    </g>
    <g id="patch_12">
     <path d="M 542.88 174.4135 
L 676.8 174.4135 
L 676.8 138.4135 
L 542.88 138.4135 
z
" style="fill: #ffffff; stroke: #000000; stroke-linejoin: miter"/>
    </g>
    <g id="text_11">
     <!-- 98.97 -->
     <g transform="translate(594.094531 159.448813) scale(0.11 -0.11)">
      <defs>
       <path id="DejaVuSans-2e" d="M 684 794 
L 1344 794 
L 1344 0 
L 684 0 
L 684 794 
z
" transform="scale(0.015625)"/>
      </defs>
      <use xlink:href="#DejaVuSans-39"/>
      <use xlink:href="#DejaVuSans-38" transform="translate(63.623047 0)"/>
      <use xlink:href="#DejaVuSans-2e" transform="translate(127.246094 0)"/>
      <use xlink:href="#DejaVuSans-39" transform="translate(159.033203 0)"/>
      <use xlink:href="#DejaVuSans-37" transform="translate(222.65625 0)"/>
     </g>
    </g>
    <g id="patch_13">
     <path d="M 676.8 174.4135 
L 810.72 174.4135 
L 810.72 138.4135 
L 676.8 138.4135 
z
" style="fill: #ffffff; stroke: #000000; stroke-linejoin: miter"/>
    </g>
    <g id="text_12">
     <!-- 30.22 -->
     <g transform="translate(728.014531 159.448813) scale(0.11 -0.11)">
      <use xlink:href="#DejaVuSans-33"/>
      <use xlink:href="#DejaVuSans-30" transform="translate(63.623047 0)"/>
      <use xlink:href="#DejaVuSans-2e" transform="translate(127.246094 0)"/>
      <use xlink:href="#DejaVuSans-32" transform="translate(159.033203 0)"/>
      <use xlink:href="#DejaVuSans-32" transform="translate(222.65625 0)"/>
     </g>
    </g>
    <g id="patch_14">
     <path d="M 7.2 210.4135 
L 141.12 210.4135 
L 141.12 174.4135 
L 7.2 174.4135 
z
" style="fill: #ffffff; stroke: #000000; stroke-linejoin: miter"/>
    </g>
    <g id="text_13">
     <!-- TM_Tiller_bud_R1_S49 -->
     <g transform="translate(13.358359 195.295844) scale(0.11 -0.11)">
      <defs>
       <path id="DejaVuSans-4d" d="M 628 4666 
L 1569 4666 
L 2759 1491 
L 3956 4666 
L 4897 4666 
L 4897 0 
L 4281 0 
L 4281 4097 
L 3078 897 
L 2444 897 
L 1241 4097 
L 1241 0 
L 628 0 
L 628 4666 
z
" transform="scale(0.015625)"/>
       <path id="DejaVuSans-69" d="M 603 3500 
L 1178 3500 
L 1178 0 
L 603 0 
L 603 3500 
z
M 603 4863 
L 1178 4863 
L 1178 4134 
L 603 4134 
L 603 4863 
z
" transform="scale(0.015625)"/>
       <path id="DejaVuSans-6c" d="M 603 4863 
L 1178 4863 
L 1178 0 
L 603 0 
L 603 4863 
z
" transform="scale(0.015625)"/>
       <path id="DejaVuSans-65" d="M 3597 1894 
L 3597 1613 
L 953 1613 
Q 991 1019 1311 708 
Q 1631 397 2203 397 
Q 2534 397 2845 478 
Q 3156 559 3463 722 
L 3463 178 
Q 3153 47 2828 -22 
Q 2503 -91 2169 -91 
Q 1331 -91 842 396 
Q 353 884 353 1716 
Q 353 2575 817 3079 
Q 1281 3584 2069 3584 
Q 2775 3584 3186 3129 
Q 3597 2675 3597 1894 
z
M 3022 2063 
Q 3016 2534 2758 2815 
Q 2500 3097 2075 3097 
Q 1594 3097 1305 2825 
Q 1016 2553 972 2059 
L 3022 2063 
z
" transform="scale(0.015625)"/>
       <path id="DejaVuSans-72" d="M 2631 2963 
Q 2534 3019 2420 3045 
Q 2306 3072 2169 3072 
Q 1681 3072 1420 2755 
Q 1159 2438 1159 1844 
L 1159 0 
L 581 0 
L 581 3500 
L 1159 3500 
L 1159 2956 
Q 1341 3275 1631 3429 
Q 1922 3584 2338 3584 
Q 2397 3584 2469 3576 
Q 2541 3569 2628 3553 
L 2631 2963 
z
" transform="scale(0.015625)"/>
       <path id="DejaVuSans-62" d="M 3116 1747 
Q 3116 2381 2855 2742 
Q 2594 3103 2138 3103 
Q 1681 3103 1420 2742 
Q 1159 2381 1159 1747 
Q 1159 1113 1420 752 
Q 1681 391 2138 391 
Q 2594 391 2855 752 
Q 3116 1113 3116 1747 
z
M 1159 2969 
Q 1341 3281 1617 3432 
Q 1894 3584 2278 3584 
Q 2916 3584 3314 3078 
Q 3713 2572 3713 1747 
Q 3713 922 3314 415 
Q 2916 -91 2278 -91 
Q 1894 -91 1617 61 
Q 1341 213 1159 525 
L 1159 0 
L 581 0 
L 581 4863 
L 1159 4863 
L 1159 2969 
z
" transform="scale(0.015625)"/>
       <path id="DejaVuSans-75" d="M 544 1381 
L 544 3500 
L 1119 3500 
L 1119 1403 
Q 1119 906 1312 657 
Q 1506 409 1894 409 
Q 2359 409 2629 706 
Q 2900 1003 2900 1516 
L 2900 3500 
L 3475 3500 
L 3475 0 
L 2900 0 
L 2900 538 
Q 2691 219 2414 64 
Q 2138 -91 1772 -91 
Q 1169 -91 856 284 
Q 544 659 544 1381 
z
M 1991 3584 
L 1991 3584 
z
" transform="scale(0.015625)"/>
       <path id="DejaVuSans-64" d="M 2906 2969 
L 2906 4863 
L 3481 4863 
L 3481 0 
L 2906 0 
L 2906 525 
Q 2725 213 2448 61 
Q 2172 -91 1784 -91 
Q 1150 -91 751 415 
Q 353 922 353 1747 
Q 353 2572 751 3078 
Q 1150 3584 1784 3584 
Q 2172 3584 2448 3432 
Q 2725 3281 2906 2969 
z
M 947 1747 
Q 947 1113 1208 752 
Q 1469 391 1925 391 
Q 2381 391 2643 752 
Q 2906 1113 2906 1747 
Q 2906 2381 2643 2742 
Q 2381 3103 1925 3103 
Q 1469 3103 1208 2742 
Q 947 2381 947 1747 
z
" transform="scale(0.015625)"/>
       <path id="DejaVuSans-52" d="M 2841 2188 
Q 3044 2119 3236 1894 
Q 3428 1669 3622 1275 
L 4263 0 
L 3584 0 
L 2988 1197 
Q 2756 1666 2539 1819 
Q 2322 1972 1947 1972 
L 1259 1972 
L 1259 0 
L 628 0 
L 628 4666 
L 2053 4666 
Q 2853 4666 3247 4331 
Q 3641 3997 3641 3322 
Q 3641 2881 3436 2590 
Q 3231 2300 2841 2188 
z
M 1259 4147 
L 1259 2491 
L 2053 2491 
Q 2509 2491 2742 2702 
Q 2975 2913 2975 3322 
Q 2975 3731 2742 3939 
Q 2509 4147 2053 4147 
L 1259 4147 
z
" transform="scale(0.015625)"/>
      </defs>
      <use xlink:href="#DejaVuSans-54"/>
      <use xlink:href="#DejaVuSans-4d" transform="translate(61.083984 0)"/>
      <use xlink:href="#DejaVuSans-5f" transform="translate(147.363281 0)"/>
      <use xlink:href="#DejaVuSans-54" transform="translate(197.363281 0)"/>
      <use xlink:href="#DejaVuSans-69" transform="translate(255.322266 0)"/>
      <use xlink:href="#DejaVuSans-6c" transform="translate(283.105469 0)"/>
      <use xlink:href="#DejaVuSans-6c" transform="translate(310.888672 0)"/>
      <use xlink:href="#DejaVuSans-65" transform="translate(338.671875 0)"/>
      <use xlink:href="#DejaVuSans-72" transform="translate(400.195312 0)"/>
      <use xlink:href="#DejaVuSans-5f" transform="translate(441.308594 0)"/>
      <use xlink:href="#DejaVuSans-62" transform="translate(491.308594 0)"/>
      <use xlink:href="#DejaVuSans-75" transform="translate(554.785156 0)"/>
      <use xlink:href="#DejaVuSans-64" transform="translate(618.164062 0)"/>
      <use xlink:href="#DejaVuSans-5f" transform="translate(681.640625 0)"/>
      <use xlink:href="#DejaVuSans-52" transform="translate(731.640625 0)"/>
      <use xlink:href="#DejaVuSans-31" transform="translate(801.123047 0)"/>
      <use xlink:href="#DejaVuSans-5f" transform="translate(864.746094 0)"/>
      <use xlink:href="#DejaVuSans-53" transform="translate(914.746094 0)"/>
      <use xlink:href="#DejaVuSans-34" transform="translate(978.222656 0)"/>
      <use xlink:href="#DejaVuSans-39" transform="translate(1041.845703 0)"/>
     </g>
    </g>
    <g id="patch_15">
     <path d="M 141.12 210.4135 
L 275.04 210.4135 
L 275.04 174.4135 
L 141.12 174.4135 
z
" style="fill: #ffffff; stroke: #000000; stroke-linejoin: miter"/>
    </g>
    <g id="text_14">
     <!-- 575,283,548 -->
     <g transform="translate(173.089687 195.448813) scale(0.11 -0.11)">
      <use xlink:href="#DejaVuSans-35"/>
      <use xlink:href="#DejaVuSans-37" transform="translate(63.623047 0)"/>
      <use xlink:href="#DejaVuSans-35" transform="translate(127.246094 0)"/>
      <use xlink:href="#DejaVuSans-2c" transform="translate(190.869141 0)"/>
      <use xlink:href="#DejaVuSans-32" transform="translate(222.65625 0)"/>
      <use xlink:href="#DejaVuSans-38" transform="translate(286.279297 0)"/>
      <use xlink:href="#DejaVuSans-33" transform="translate(349.902344 0)"/>
      <use xlink:href="#DejaVuSans-2c" transform="translate(413.525391 0)"/>
      <use xlink:href="#DejaVuSans-35" transform="translate(445.3125 0)"/>
      <use xlink:href="#DejaVuSans-34" transform="translate(508.935547 0)"/>
      <use xlink:href="#DejaVuSans-38" transform="translate(572.558594 0)"/>
     </g>
    </g>
    <g id="patch_16">
     <path d="M 275.04 210.4135 
L 408.96 210.4135 
L 408.96 174.4135 
L 275.04 174.4135 
z
" style="fill: #ffffff; stroke: #000000; stroke-linejoin: miter"/>
    </g>
    <g id="text_15">
     <!-- 564,508,262 -->
     <g transform="translate(307.009687 195.448813) scale(0.11 -0.11)">
      <use xlink:href="#DejaVuSans-35"/>
      <use xlink:href="#DejaVuSans-36" transform="translate(63.623047 0)"/>
      <use xlink:href="#DejaVuSans-34" transform="translate(127.246094 0)"/>
      <use xlink:href="#DejaVuSans-2c" transform="translate(190.869141 0)"/>
      <use xlink:href="#DejaVuSans-35" transform="translate(222.65625 0)"/>
      <use xlink:href="#DejaVuSans-30" transform="translate(286.279297 0)"/>
      <use xlink:href="#DejaVuSans-38" transform="translate(349.902344 0)"/>
      <use xlink:href="#DejaVuSans-2c" transform="translate(413.525391 0)"/>
      <use xlink:href="#DejaVuSans-32" transform="translate(445.3125 0)"/>
      <use xlink:href="#DejaVuSans-36" transform="translate(508.935547 0)"/>
      <use xlink:href="#DejaVuSans-32" transform="translate(572.558594 0)"/>
     </g>
    </g>
    <g id="patch_17">
     <path d="M 408.96 210.4135 
L 542.88 210.4135 
L 542.88 174.4135 
L 408.96 174.4135 
z
" style="fill: #ffffff; stroke: #000000; stroke-linejoin: miter"/>
    </g>
    <g id="text_16">
     <!-- 358,483,976 -->
     <g transform="translate(440.929687 195.448813) scale(0.11 -0.11)">
      <use xlink:href="#DejaVuSans-33"/>
      <use xlink:href="#DejaVuSans-35" transform="translate(63.623047 0)"/>
      <use xlink:href="#DejaVuSans-38" transform="translate(127.246094 0)"/>
      <use xlink:href="#DejaVuSans-2c" transform="translate(190.869141 0)"/>
      <use xlink:href="#DejaVuSans-34" transform="translate(222.65625 0)"/>
      <use xlink:href="#DejaVuSans-38" transform="translate(286.279297 0)"/>
      <use xlink:href="#DejaVuSans-33" transform="translate(349.902344 0)"/>
      <use xlink:href="#DejaVuSans-2c" transform="translate(413.525391 0)"/>
      <use xlink:href="#DejaVuSans-39" transform="translate(445.3125 0)"/>
      <use xlink:href="#DejaVuSans-37" transform="translate(508.935547 0)"/>
      <use xlink:href="#DejaVuSans-36" transform="translate(572.558594 0)"/>
     </g>
    </g>
    <g id="patch_18">
     <path d="M 542.88 210.4135 
L 676.8 210.4135 
L 676.8 174.4135 
L 542.88 174.4135 
z
" style="fill: #ffffff; stroke: #000000; stroke-linejoin: miter"/>
    </g>
    <g id="text_17">
     <!-- 98.13 -->
     <g transform="translate(594.094531 195.448813) scale(0.11 -0.11)">
      <use xlink:href="#DejaVuSans-39"/>
      <use xlink:href="#DejaVuSans-38" transform="translate(63.623047 0)"/>
      <use xlink:href="#DejaVuSans-2e" transform="translate(127.246094 0)"/>
      <use xlink:href="#DejaVuSans-31" transform="translate(159.033203 0)"/>
      <use xlink:href="#DejaVuSans-33" transform="translate(222.65625 0)"/>
     </g>
    </g>
    <g id="patch_19">
     <path d="M 676.8 210.4135 
L 810.72 210.4135 
L 810.72 174.4135 
L 676.8 174.4135 
z
" style="fill: #ffffff; stroke: #000000; stroke-linejoin: miter"/>
    </g>
    <g id="text_18">
     <!-- 63.5 -->
     <g transform="translate(731.513906 195.448813) scale(0.11 -0.11)">
      <use xlink:href="#DejaVuSans-36"/>
      <use xlink:href="#DejaVuSans-33" transform="translate(63.623047 0)"/>
      <use xlink:href="#DejaVuSans-2e" transform="translate(127.246094 0)"/>
      <use xlink:href="#DejaVuSans-35" transform="translate(159.033203 0)"/>
     </g>
    </g>
    <g id="patch_20">
     <path d="M 7.2 246.4135 
L 141.12 246.4135 
L 141.12 210.4135 
L 7.2 210.4135 
z
" style="fill: #ffffff; stroke: #000000; stroke-linejoin: miter"/>
    </g>
    <g id="text_19">
     <!-- B104WT1_AM_S14 -->
     <g transform="translate(23.093359 231.198734) scale(0.11 -0.11)">
      <defs>
       <path id="DejaVuSans-57" d="M 213 4666 
L 850 4666 
L 1831 722 
L 2809 4666 
L 3519 4666 
L 4500 722 
L 5478 4666 
L 6119 4666 
L 4947 0 
L 4153 0 
L 3169 4050 
L 2175 0 
L 1381 0 
L 213 4666 
z
" transform="scale(0.015625)"/>
       <path id="DejaVuSans-41" d="M 2188 4044 
L 1331 1722 
L 3047 1722 
L 2188 4044 
z
M 1831 4666 
L 2547 4666 
L 4325 0 
L 3669 0 
L 3244 1197 
L 1141 1197 
L 716 0 
L 50 0 
L 1831 4666 
z
" transform="scale(0.015625)"/>
      </defs>
      <use xlink:href="#DejaVuSans-42"/>
      <use xlink:href="#DejaVuSans-31" transform="translate(68.603516 0)"/>
      <use xlink:href="#DejaVuSans-30" transform="translate(132.226562 0)"/>
      <use xlink:href="#DejaVuSans-34" transform="translate(195.849609 0)"/>
      <use xlink:href="#DejaVuSans-57" transform="translate(259.472656 0)"/>
      <use xlink:href="#DejaVuSans-54" transform="translate(358.349609 0)"/>
      <use xlink:href="#DejaVuSans-31" transform="translate(419.433594 0)"/>
      <use xlink:href="#DejaVuSans-5f" transform="translate(483.056641 0)"/>
      <use xlink:href="#DejaVuSans-41" transform="translate(533.056641 0)"/>
      <use xlink:href="#DejaVuSans-4d" transform="translate(601.464844 0)"/>
      <use xlink:href="#DejaVuSans-5f" transform="translate(687.744141 0)"/>
      <use xlink:href="#DejaVuSans-53" transform="translate(737.744141 0)"/>
      <use xlink:href="#DejaVuSans-31" transform="translate(801.220703 0)"/>
      <use xlink:href="#DejaVuSans-34" transform="translate(864.84375 0)"/>
     </g>
    </g>
    <g id="patch_21">
     <path d="M 141.12 246.4135 
L 275.04 246.4135 
L 275.04 210.4135 
L 141.12 210.4135 
z
" style="fill: #ffffff; stroke: #000000; stroke-linejoin: miter"/>
    </g>
    <g id="text_20">
     <!-- 236,269,392 -->
     <g transform="translate(173.089687 231.448813) scale(0.11 -0.11)">
      <use xlink:href="#DejaVuSans-32"/>
      <use xlink:href="#DejaVuSans-33" transform="translate(63.623047 0)"/>
      <use xlink:href="#DejaVuSans-36" transform="translate(127.246094 0)"/>
      <use xlink:href="#DejaVuSans-2c" transform="translate(190.869141 0)"/>
      <use xlink:href="#DejaVuSans-32" transform="translate(222.65625 0)"/>
      <use xlink:href="#DejaVuSans-36" transform="translate(286.279297 0)"/>
      <use xlink:href="#DejaVuSans-39" transform="translate(349.902344 0)"/>
      <use xlink:href="#DejaVuSans-2c" transform="translate(413.525391 0)"/>
      <use xlink:href="#DejaVuSans-33" transform="translate(445.3125 0)"/>
      <use xlink:href="#DejaVuSans-39" transform="translate(508.935547 0)"/>
      <use xlink:href="#DejaVuSans-32" transform="translate(572.558594 0)"/>
     </g>
    </g>
    <g id="patch_22">
     <path d="M 275.04 246.4135 
L 408.96 246.4135 
L 408.96 210.4135 
L 275.04 210.4135 
z
" style="fill: #ffffff; stroke: #000000; stroke-linejoin: miter"/>
    </g>
    <g id="text_21">
     <!-- 234,737,012 -->
     <g transform="translate(307.009687 231.448813) scale(0.11 -0.11)">
      <use xlink:href="#DejaVuSans-32"/>
      <use xlink:href="#DejaVuSans-33" transform="translate(63.623047 0)"/>
      <use xlink:href="#DejaVuSans-34" transform="translate(127.246094 0)"/>
      <use xlink:href="#DejaVuSans-2c" transform="translate(190.869141 0)"/>
      <use xlink:href="#DejaVuSans-37" transform="translate(222.65625 0)"/>
      <use xlink:href="#DejaVuSans-33" transform="translate(286.279297 0)"/>
      <use xlink:href="#DejaVuSans-37" transform="translate(349.902344 0)"/>
      <use xlink:href="#DejaVuSans-2c" transform="translate(413.525391 0)"/>
      <use xlink:href="#DejaVuSans-30" transform="translate(445.3125 0)"/>
      <use xlink:href="#DejaVuSans-31" transform="translate(508.935547 0)"/>
      <use xlink:href="#DejaVuSans-32" transform="translate(572.558594 0)"/>
     </g>
    </g>
    <g id="patch_23">
     <path d="M 408.96 246.4135 
L 542.88 246.4135 
L 542.88 210.4135 
L 408.96 210.4135 
z
" style="fill: #ffffff; stroke: #000000; stroke-linejoin: miter"/>
    </g>
    <g id="text_22">
     <!-- 91,330,242 -->
     <g transform="translate(444.429062 231.448813) scale(0.11 -0.11)">
      <use xlink:href="#DejaVuSans-39"/>
      <use xlink:href="#DejaVuSans-31" transform="translate(63.623047 0)"/>
      <use xlink:href="#DejaVuSans-2c" transform="translate(127.246094 0)"/>
      <use xlink:href="#DejaVuSans-33" transform="translate(159.033203 0)"/>
      <use xlink:href="#DejaVuSans-33" transform="translate(222.65625 0)"/>
      <use xlink:href="#DejaVuSans-30" transform="translate(286.279297 0)"/>
      <use xlink:href="#DejaVuSans-2c" transform="translate(349.902344 0)"/>
      <use xlink:href="#DejaVuSans-32" transform="translate(381.689453 0)"/>
      <use xlink:href="#DejaVuSans-34" transform="translate(445.3125 0)"/>
      <use xlink:href="#DejaVuSans-32" transform="translate(508.935547 0)"/>
     </g>
    </g>
    <g id="patch_24">
     <path d="M 542.88 246.4135 
L 676.8 246.4135 
L 676.8 210.4135 
L 542.88 210.4135 
z
" style="fill: #ffffff; stroke: #000000; stroke-linejoin: miter"/>
    </g>
    <g id="text_23">
     <!-- 99.35 -->
     <g transform="translate(594.094531 231.448813) scale(0.11 -0.11)">
      <use xlink:href="#DejaVuSans-39"/>
      <use xlink:href="#DejaVuSans-39" transform="translate(63.623047 0)"/>
      <use xlink:href="#DejaVuSans-2e" transform="translate(127.246094 0)"/>
      <use xlink:href="#DejaVuSans-33" transform="translate(159.033203 0)"/>
      <use xlink:href="#DejaVuSans-35" transform="translate(222.65625 0)"/>
     </g>
    </g>
    <g id="patch_25">
     <path d="M 676.8 246.4135 
L 810.72 246.4135 
L 810.72 210.4135 
L 676.8 210.4135 
z
" style="fill: #ffffff; stroke: #000000; stroke-linejoin: miter"/>
    </g>
    <g id="text_24">
     <!-- 38.91 -->
     <g transform="translate(728.014531 231.448813) scale(0.11 -0.11)">
      <use xlink:href="#DejaVuSans-33"/>
      <use xlink:href="#DejaVuSans-38" transform="translate(63.623047 0)"/>
      <use xlink:href="#DejaVuSans-2e" transform="translate(127.246094 0)"/>
      <use xlink:href="#DejaVuSans-39" transform="translate(159.033203 0)"/>
      <use xlink:href="#DejaVuSans-31" transform="translate(222.65625 0)"/>
     </g>
    </g>
    <g id="patch_26">
     <path d="M 7.2 282.4135 
L 141.12 282.4135 
L 141.12 246.4135 
L 7.2 246.4135 
z
" style="fill: #ffffff; stroke: #000000; stroke-linejoin: miter"/>
    </g>
    <g id="text_25">
     <!-- B104WT2_AM_S16 -->
     <g transform="translate(23.093359 267.198734) scale(0.11 -0.11)">
      <use xlink:href="#DejaVuSans-42"/>
      <use xlink:href="#DejaVuSans-31" transform="translate(68.603516 0)"/>
      <use xlink:href="#DejaVuSans-30" transform="translate(132.226562 0)"/>
      <use xlink:href="#DejaVuSans-34" transform="translate(195.849609 0)"/>
      <use xlink:href="#DejaVuSans-57" transform="translate(259.472656 0)"/>
      <use xlink:href="#DejaVuSans-54" transform="translate(358.349609 0)"/>
      <use xlink:href="#DejaVuSans-32" transform="translate(419.433594 0)"/>
      <use xlink:href="#DejaVuSans-5f" transform="translate(483.056641 0)"/>
      <use xlink:href="#DejaVuSans-41" transform="translate(533.056641 0)"/>
      <use xlink:href="#DejaVuSans-4d" transform="translate(601.464844 0)"/>
      <use xlink:href="#DejaVuSans-5f" transform="translate(687.744141 0)"/>
      <use xlink:href="#DejaVuSans-53" transform="translate(737.744141 0)"/>
      <use xlink:href="#DejaVuSans-31" transform="translate(801.220703 0)"/>
      <use xlink:href="#DejaVuSans-36" transform="translate(864.84375 0)"/>
     </g>
    </g>
    <g id="patch_27">
     <path d="M 141.12 282.4135 
L 275.04 282.4135 
L 275.04 246.4135 
L 141.12 246.4135 
z
" style="fill: #ffffff; stroke: #000000; stroke-linejoin: miter"/>
    </g>
    <g id="text_26">
     <!-- 263,952,276 -->
     <g transform="translate(173.089687 267.448813) scale(0.11 -0.11)">
      <use xlink:href="#DejaVuSans-32"/>
      <use xlink:href="#DejaVuSans-36" transform="translate(63.623047 0)"/>
      <use xlink:href="#DejaVuSans-33" transform="translate(127.246094 0)"/>
      <use xlink:href="#DejaVuSans-2c" transform="translate(190.869141 0)"/>
      <use xlink:href="#DejaVuSans-39" transform="translate(222.65625 0)"/>
      <use xlink:href="#DejaVuSans-35" transform="translate(286.279297 0)"/>
      <use xlink:href="#DejaVuSans-32" transform="translate(349.902344 0)"/>
      <use xlink:href="#DejaVuSans-2c" transform="translate(413.525391 0)"/>
      <use xlink:href="#DejaVuSans-32" transform="translate(445.3125 0)"/>
      <use xlink:href="#DejaVuSans-37" transform="translate(508.935547 0)"/>
      <use xlink:href="#DejaVuSans-36" transform="translate(572.558594 0)"/>
     </g>
    </g>
    <g id="patch_28">
     <path d="M 275.04 282.4135 
L 408.96 282.4135 
L 408.96 246.4135 
L 275.04 246.4135 
z
" style="fill: #ffffff; stroke: #000000; stroke-linejoin: miter"/>
    </g>
    <g id="text_27">
     <!-- 262,623,118 -->
     <g transform="translate(307.009687 267.448813) scale(0.11 -0.11)">
      <use xlink:href="#DejaVuSans-32"/>
      <use xlink:href="#DejaVuSans-36" transform="translate(63.623047 0)"/>
      <use xlink:href="#DejaVuSans-32" transform="translate(127.246094 0)"/>
      <use xlink:href="#DejaVuSans-2c" transform="translate(190.869141 0)"/>
      <use xlink:href="#DejaVuSans-36" transform="translate(222.65625 0)"/>
      <use xlink:href="#DejaVuSans-32" transform="translate(286.279297 0)"/>
      <use xlink:href="#DejaVuSans-33" transform="translate(349.902344 0)"/>
      <use xlink:href="#DejaVuSans-2c" transform="translate(413.525391 0)"/>
      <use xlink:href="#DejaVuSans-31" transform="translate(445.3125 0)"/>
      <use xlink:href="#DejaVuSans-31" transform="translate(508.935547 0)"/>
      <use xlink:href="#DejaVuSans-38" transform="translate(572.558594 0)"/>
     </g>
    </g>
    <g id="patch_29">
     <path d="M 408.96 282.4135 
L 542.88 282.4135 
L 542.88 246.4135 
L 408.96 246.4135 
z
" style="fill: #ffffff; stroke: #000000; stroke-linejoin: miter"/>
    </g>
    <g id="text_28">
     <!-- 109,869,608 -->
     <g transform="translate(440.929687 267.448813) scale(0.11 -0.11)">
      <use xlink:href="#DejaVuSans-31"/>
      <use xlink:href="#DejaVuSans-30" transform="translate(63.623047 0)"/>
      <use xlink:href="#DejaVuSans-39" transform="translate(127.246094 0)"/>
      <use xlink:href="#DejaVuSans-2c" transform="translate(190.869141 0)"/>
      <use xlink:href="#DejaVuSans-38" transform="translate(222.65625 0)"/>
      <use xlink:href="#DejaVuSans-36" transform="translate(286.279297 0)"/>
      <use xlink:href="#DejaVuSans-39" transform="translate(349.902344 0)"/>
      <use xlink:href="#DejaVuSans-2c" transform="translate(413.525391 0)"/>
      <use xlink:href="#DejaVuSans-36" transform="translate(445.3125 0)"/>
      <use xlink:href="#DejaVuSans-30" transform="translate(508.935547 0)"/>
      <use xlink:href="#DejaVuSans-38" transform="translate(572.558594 0)"/>
     </g>
    </g>
    <g id="patch_30">
     <path d="M 542.88 282.4135 
L 676.8 282.4135 
L 676.8 246.4135 
L 542.88 246.4135 
z
" style="fill: #ffffff; stroke: #000000; stroke-linejoin: miter"/>
    </g>
    <g id="text_29">
     <!-- 99.5 -->
     <g transform="translate(597.593906 267.448813) scale(0.11 -0.11)">
      <use xlink:href="#DejaVuSans-39"/>
      <use xlink:href="#DejaVuSans-39" transform="translate(63.623047 0)"/>
      <use xlink:href="#DejaVuSans-2e" transform="translate(127.246094 0)"/>
      <use xlink:href="#DejaVuSans-35" transform="translate(159.033203 0)"/>
     </g>
    </g>
    <g id="patch_31">
     <path d="M 676.8 282.4135 
L 810.72 282.4135 
L 810.72 246.4135 
L 676.8 246.4135 
z
" style="fill: #ffffff; stroke: #000000; stroke-linejoin: miter"/>
    </g>
    <g id="text_30">
     <!-- 41.84 -->
     <g transform="translate(728.014531 267.448813) scale(0.11 -0.11)">
      <use xlink:href="#DejaVuSans-34"/>
      <use xlink:href="#DejaVuSans-31" transform="translate(63.623047 0)"/>
      <use xlink:href="#DejaVuSans-2e" transform="translate(127.246094 0)"/>
      <use xlink:href="#DejaVuSans-38" transform="translate(159.033203 0)"/>
      <use xlink:href="#DejaVuSans-34" transform="translate(222.65625 0)"/>
     </g>
    </g>
   </g>
   <g id="text_31">
    <!-- Whole-Genome Mapping and Alignment Quality Summary -->
    <g transform="translate(149.30375 19.3575) scale(0.16 -0.16)">
     <defs>
      <path id="DejaVuSans-Bold-57" d="M 191 4666 
L 1344 4666 
L 2150 1275 
L 2950 4666 
L 4109 4666 
L 4909 1275 
L 5716 4666 
L 6859 4666 
L 5759 0 
L 4372 0 
L 3525 3547 
L 2688 0 
L 1300 0 
L 191 4666 
z
" transform="scale(0.015625)"/>
      <path id="DejaVuSans-Bold-68" d="M 4056 2131 
L 4056 0 
L 2931 0 
L 2931 347 
L 2931 1625 
Q 2931 2084 2911 2256 
Q 2891 2428 2841 2509 
Q 2775 2619 2662 2680 
Q 2550 2741 2406 2741 
Q 2056 2741 1856 2470 
Q 1656 2200 1656 1722 
L 1656 0 
L 538 0 
L 538 4863 
L 1656 4863 
L 1656 2988 
Q 1909 3294 2193 3439 
Q 2478 3584 2822 3584 
Q 3428 3584 3742 3212 
Q 4056 2841 4056 2131 
z
" transform="scale(0.015625)"/>
      <path id="DejaVuSans-Bold-2d" d="M 347 2297 
L 2309 2297 
L 2309 1388 
L 347 1388 
L 347 2297 
z
" transform="scale(0.015625)"/>
      <path id="DejaVuSans-Bold-47" d="M 4781 347 
Q 4331 128 3847 18 
Q 3363 -91 2847 -91 
Q 1681 -91 1000 561 
Q 319 1213 319 2328 
Q 319 3456 1012 4103 
Q 1706 4750 2913 4750 
Q 3378 4750 3804 4662 
Q 4231 4575 4609 4403 
L 4609 3438 
Q 4219 3659 3833 3768 
Q 3447 3878 3059 3878 
Q 2341 3878 1952 3476 
Q 1563 3075 1563 2328 
Q 1563 1588 1938 1184 
Q 2313 781 3003 781 
Q 3191 781 3352 804 
Q 3513 828 3641 878 
L 3641 1784 
L 2906 1784 
L 2906 2591 
L 4781 2591 
L 4781 347 
z
" transform="scale(0.015625)"/>
      <path id="DejaVuSans-Bold-41" d="M 3419 850 
L 1538 850 
L 1241 0 
L 31 0 
L 1759 4666 
L 3194 4666 
L 4922 0 
L 3713 0 
L 3419 850 
z
M 1838 1716 
L 3116 1716 
L 2478 3572 
L 1838 1716 
z
" transform="scale(0.015625)"/>
      <path id="DejaVuSans-Bold-79" d="M 78 3500 
L 1197 3500 
L 2138 1125 
L 2938 3500 
L 4056 3500 
L 2584 -331 
Q 2363 -916 2067 -1148 
Q 1772 -1381 1288 -1381 
L 641 -1381 
L 641 -647 
L 991 -647 
Q 1275 -647 1404 -556 
Q 1534 -466 1606 -231 
L 1638 -134 
L 78 3500 
z
" transform="scale(0.015625)"/>
     </defs>
     <use xlink:href="#DejaVuSans-Bold-57"/>
     <use xlink:href="#DejaVuSans-Bold-68" transform="translate(110.302734 0)"/>
     <use xlink:href="#DejaVuSans-Bold-6f" transform="translate(181.494141 0)"/>
     <use xlink:href="#DejaVuSans-Bold-6c" transform="translate(250.195312 0)"/>
     <use xlink:href="#DejaVuSans-Bold-65" transform="translate(284.472656 0)"/>
     <use xlink:href="#DejaVuSans-Bold-2d" transform="translate(352.294922 0)"/>
     <use xlink:href="#DejaVuSans-Bold-47" transform="translate(393.798828 0)"/>
     <use xlink:href="#DejaVuSans-Bold-65" transform="translate(475.878906 0)"/>
     <use xlink:href="#DejaVuSans-Bold-6e" transform="translate(543.701172 0)"/>
     <use xlink:href="#DejaVuSans-Bold-6f" transform="translate(614.892578 0)"/>
     <use xlink:href="#DejaVuSans-Bold-6d" transform="translate(683.59375 0)"/>
     <use xlink:href="#DejaVuSans-Bold-65" transform="translate(787.792969 0)"/>
     <use xlink:href="#DejaVuSans-Bold-20" transform="translate(855.615234 0)"/>
     <use xlink:href="#DejaVuSans-Bold-4d" transform="translate(890.429688 0)"/>
     <use xlink:href="#DejaVuSans-Bold-61" transform="translate(989.941406 0)"/>
     <use xlink:href="#DejaVuSans-Bold-70" transform="translate(1057.421875 0)"/>
     <use xlink:href="#DejaVuSans-Bold-70" transform="translate(1129.003906 0)"/>
     <use xlink:href="#DejaVuSans-Bold-69" transform="translate(1200.585938 0)"/>
     <use xlink:href="#DejaVuSans-Bold-6e" transform="translate(1234.863281 0)"/>
     <use xlink:href="#DejaVuSans-Bold-67" transform="translate(1306.054688 0)"/>
     <use xlink:href="#DejaVuSans-Bold-20" transform="translate(1377.636719 0)"/>
     <use xlink:href="#DejaVuSans-Bold-61" transform="translate(1412.451172 0)"/>
     <use xlink:href="#DejaVuSans-Bold-6e" transform="translate(1479.931641 0)"/>
     <use xlink:href="#DejaVuSans-Bold-64" transform="translate(1551.123047 0)"/>
     <use xlink:href="#DejaVuSans-Bold-20" transform="translate(1622.705078 0)"/>
     <use xlink:href="#DejaVuSans-Bold-41" transform="translate(1657.519531 0)"/>
     <use xlink:href="#DejaVuSans-Bold-6c" transform="translate(1734.912109 0)"/>
     <use xlink:href="#DejaVuSans-Bold-69" transform="translate(1769.189453 0)"/>
     <use xlink:href="#DejaVuSans-Bold-67" transform="translate(1803.466797 0)"/>
     <use xlink:href="#DejaVuSans-Bold-6e" transform="translate(1875.048828 0)"/>
     <use xlink:href="#DejaVuSans-Bold-6d" transform="translate(1946.240234 0)"/>
     <use xlink:href="#DejaVuSans-Bold-65" transform="translate(2050.439453 0)"/>
     <use xlink:href="#DejaVuSans-Bold-6e" transform="translate(2118.261719 0)"/>
     <use xlink:href="#DejaVuSans-Bold-74" transform="translate(2189.453125 0)"/>
     <use xlink:href="#DejaVuSans-Bold-20" transform="translate(2237.255859 0)"/>
     <use xlink:href="#DejaVuSans-Bold-51" transform="translate(2272.070312 0)"/>
     <use xlink:href="#DejaVuSans-Bold-75" transform="translate(2357.080078 0)"/>
     <use xlink:href="#DejaVuSans-Bold-61" transform="translate(2428.271484 0)"/>
     <use xlink:href="#DejaVuSans-Bold-6c" transform="translate(2495.751953 0)"/>
     <use xlink:href="#DejaVuSans-Bold-69" transform="translate(2530.029297 0)"/>
     <use xlink:href="#DejaVuSans-Bold-74" transform="translate(2564.306641 0)"/>
     <use xlink:href="#DejaVuSans-Bold-79" transform="translate(2612.109375 0)"/>
     <use xlink:href="#DejaVuSans-Bold-20" transform="translate(2677.294922 0)"/>
     <use xlink:href="#DejaVuSans-Bold-53" transform="translate(2712.109375 0)"/>
     <use xlink:href="#DejaVuSans-Bold-75" transform="translate(2784.130859 0)"/>
     <use xlink:href="#DejaVuSans-Bold-6d" transform="translate(2855.322266 0)"/>
     <use xlink:href="#DejaVuSans-Bold-6d" transform="translate(2959.521484 0)"/>
     <use xlink:href="#DejaVuSans-Bold-61" transform="translate(3063.720703 0)"/>
     <use xlink:href="#DejaVuSans-Bold-72" transform="translate(3131.201172 0)"/>
     <use xlink:href="#DejaVuSans-Bold-79" transform="translate(3180.517578 0)"/>
    </g>
   </g>
  </g>
 </g>
</svg>
